<svg id="Camada_2_cópia_cópia_cópia" data-name="Camada 2 cópia cópia cópia" xmlns="http://www.w3.org/2000/svg" viewBox="0 0 1000 1000"><defs><style>.cls-1{fill:#1183ff;}</style></defs><title>logo-vetor</title><path class="cls-1" d="M996.27,699.79a133.49,133.49,0,0,1-133.5,133.49c-.56,0-1.15,0-1.72,0H532.33l.24-.51.77-1.52L675.18,589.84c12.18-21.64-3.47-48.39-28.3-48.39H621.2L702.4,216c96.69,58,161.39,163.87,161.39,284.82a333.28,333.28,0,0,1-6.48,65.57c1.81-.09,3.64-.13,5.46-.13A133.49,133.49,0,0,1,996.27,699.79Z"/><path class="cls-1" d="M404.39,541.45h39.14l-1.56,279,0,10.8,0,2H201v0C91.41,833.24,2.57,744.41,2.57,634.83S91.41,436.41,201,436.41c1.74,0,3.49,0,5.23.06C231.15,309.56,328.43,208.6,453.32,178.3L373.15,500.05A32.5,32.5,0,0,0,404.39,541.45Z"/><path class="cls-1" d="M741.36,79.39,702.4,216A332.91,332.91,0,0,0,453.32,178.3L486.59,61.57A32.48,32.48,0,0,1,517.83,38H710.12A32.49,32.49,0,0,1,741.36,79.39Z"/><path class="cls-1" d="M532.33,833.26,471.75,953.68c-8.22,14.62-30.49,8.73-30.39-8l.55-112.38Z"/></svg>