<svg id="Camada_1" data-name="Camada 1" xmlns="http://www.w3.org/2000/svg" viewBox="0 0 4048 1000"><defs><style>.cls-1,.cls-2,.cls-3{fill:#1183ff;}.cls-2,.cls-3{font-size:450px;font-weight:300;}.cls-2{font-family:FuturaPT-Demi, Futura PT;}.cls-3{font-family:FuturaPT-Light, Futura PT;}</style></defs><title>logo</title><path class="cls-1" d="M2521.28,696.21a133.49,133.49,0,0,1-133.5,133.49c-.57,0-1.15,0-1.72,0H2057.34l.24-.5.77-1.53,141.84-241.39c12.18-21.64-3.47-48.39-28.3-48.39h-25.68l81.2-325.42c96.69,58,161.39,163.87,161.39,284.82a334,334,0,0,1-6.48,65.57c1.81-.08,3.64-.12,5.46-.12A133.49,133.49,0,0,1,2521.28,696.21Z"/><path class="cls-1" d="M1929.4,537.87h39.14l-1.56,279,0,10.8,0,2H1726v0c-109.58,0-198.41-88.83-198.41-198.41S1616.41,432.83,1726,432.83c1.75,0,3.5,0,5.24.07C1756.16,306,1853.44,205,1978.33,174.72l-80.17,321.76A32.49,32.49,0,0,0,1929.4,537.87Z"/><path class="cls-1" d="M2266.37,75.81l-39,136.64a332.91,332.91,0,0,0-249.08-37.73L2011.6,58a32.48,32.48,0,0,1,31.24-23.57h192.28A32.5,32.5,0,0,1,2266.37,75.81Z"/><path class="cls-1" d="M2057.34,829.68l-60.58,120.43c-8.22,14.61-30.49,8.72-30.39-8l.55-112.39Z"/><text class="cls-2" transform="translate(179.76 679.48)">alpha</text><text class="cls-3" transform="translate(2758.49 679.42)">cloud</text></svg>